<svg width="248" height="47" viewBox="0 0 248 47" fill="none" xmlns="http://www.w3.org/2000/svg">
<path d="M45.7886 33.2206C45.2212 33.8495 34.0335 45.5579 22.7393 40.6193C15.5763 37.4008 12.9168 29.8357 12.3672 28.023C11.0185 28.9154 9.82034 30.0341 8.82114 31.3339C7.1551 33.5774 6.0247 36.2022 5.52332 38.9916C4.70773 43.0053 5.52332 45.2804 3.96306 46.1867C3.59813 46.3923 3.18989 46.5 2.77514 46.5C2.36039 46.5 1.95215 46.3923 1.58722 46.1867C-1.24961 44.6145 -0.0439604 35.5512 3.30705 29.8357C4.04738 28.5947 4.92189 27.4466 5.91338 26.4138C7.55207 24.6807 9.45041 23.2375 11.5339 22.1411C13.8059 20.7774 16.1772 19.6023 18.6259 18.6267C23.1979 16.9725 27.9757 16.0193 32.8101 15.7967C32.6747 15.2947 32.439 14.8283 32.1186 14.428C28.5371 9.82232 14.1402 17.295 13.0232 17.9054C13.1 16.2904 13.4795 14.7069 14.1402 13.2442C17.7926 5.4756 28.5726 5.08717 29.6541 5.08717C30.8799 5.10993 32.1016 5.23986 33.3065 5.4756L34.0689 5.66057C35.2822 5.9216 36.518 6.05176 37.7568 6.049C40.1672 6.06652 42.5569 5.58511 44.7877 4.63262C47.0186 3.68013 49.0461 2.27549 50.753 0.5C55.0083 12.4488 53.1466 25.23 45.7886 33.2206Z" fill="#436850"/>
<path d="M88.728 35L83.8 26.296H81.688V35H77.208V12.664H85.592C87.32 12.664 88.792 12.9733 90.008 13.592C91.224 14.1893 92.1307 15.0107 92.728 16.056C93.3467 17.08 93.656 18.232 93.656 19.512C93.656 20.984 93.2293 22.3173 92.376 23.512C91.5227 24.6853 90.2533 25.496 88.568 25.944L93.912 35H88.728ZM81.688 22.936H85.432C86.648 22.936 87.5547 22.648 88.152 22.072C88.7493 21.4747 89.048 20.6533 89.048 19.608C89.048 18.584 88.7493 17.7947 88.152 17.24C87.5547 16.664 86.648 16.376 85.432 16.376H81.688V22.936ZM97.26 17.816C97.3667 15.6827 98.1133 14.04 99.5 12.888C100.908 11.7147 102.753 11.128 105.036 11.128C106.593 11.128 107.927 11.4053 109.036 11.96C110.145 12.4933 110.977 13.2293 111.532 14.168C112.108 15.0853 112.396 16.1307 112.396 17.304C112.396 18.648 112.044 19.7893 111.34 20.728C110.657 21.6453 109.836 22.264 108.876 22.584V22.712C110.113 23.096 111.073 23.7787 111.756 24.76C112.46 25.7413 112.812 27 112.812 28.536C112.812 29.816 112.513 30.9573 111.916 31.96C111.34 32.9627 110.476 33.752 109.324 34.328C108.193 34.8827 106.828 35.16 105.228 35.16C102.817 35.16 100.855 34.552 99.34 33.336C97.8253 32.12 97.0253 30.328 96.94 27.96H101.292C101.335 29.0053 101.687 29.848 102.348 30.488C103.031 31.1067 103.959 31.416 105.132 31.416C106.22 31.416 107.052 31.1173 107.628 30.52C108.225 29.9013 108.524 29.112 108.524 28.152C108.524 26.872 108.119 25.9547 107.308 25.4C106.497 24.8453 105.239 24.568 103.532 24.568H102.604V20.888H103.532C106.561 20.888 108.076 19.8747 108.076 17.848C108.076 16.9307 107.799 16.216 107.244 15.704C106.711 15.192 105.932 14.936 104.908 14.936C103.905 14.936 103.127 15.2133 102.572 15.768C102.039 16.3013 101.729 16.984 101.644 17.816H97.26ZM124.256 30.872L128.736 17.272H133.504L126.944 35H121.504L114.976 17.272H119.776L124.256 30.872ZM143.893 35.288C142.186 35.288 140.65 34.9147 139.285 34.168C137.919 33.4 136.842 32.3227 136.053 30.936C135.285 29.5493 134.901 27.9493 134.901 26.136C134.901 24.3227 135.295 22.7227 136.085 21.336C136.895 19.9493 137.994 18.8827 139.381 18.136C140.767 17.368 142.314 16.984 144.021 16.984C145.727 16.984 147.274 17.368 148.661 18.136C150.047 18.8827 151.135 19.9493 151.925 21.336C152.735 22.7227 153.141 24.3227 153.141 26.136C153.141 27.9493 152.725 29.5493 151.892 30.936C151.082 32.3227 149.973 33.4 148.565 34.168C147.178 34.9147 145.621 35.288 143.893 35.288ZM143.893 31.384C144.703 31.384 145.461 31.192 146.165 30.808C146.89 30.4027 147.466 29.8053 147.893 29.016C148.319 28.2267 148.533 27.2667 148.533 26.136C148.533 24.4507 148.085 23.16 147.189 22.264C146.314 21.3467 145.237 20.888 143.957 20.888C142.677 20.888 141.599 21.3467 140.725 22.264C139.871 23.16 139.445 24.4507 139.445 26.136C139.445 27.8213 139.861 29.1227 140.693 30.04C141.546 30.936 142.613 31.384 143.893 31.384ZM160.907 11.32V35H156.427V11.32H160.907ZM182.069 17.272V35H177.557V32.76C176.981 33.528 176.224 34.136 175.285 34.584C174.368 35.0107 173.365 35.224 172.277 35.224C170.89 35.224 169.664 34.936 168.597 34.36C167.53 33.7627 166.688 32.8987 166.069 31.768C165.472 30.616 165.173 29.2507 165.173 27.672V17.272H169.653V27.032C169.653 28.44 170.005 29.528 170.709 30.296C171.413 31.0427 172.373 31.416 173.589 31.416C174.826 31.416 175.797 31.0427 176.501 30.296C177.205 29.528 177.557 28.44 177.557 27.032V17.272H182.069ZM191.705 20.952V29.528C191.705 30.1253 191.844 30.5627 192.121 30.84C192.42 31.096 192.911 31.224 193.593 31.224H195.673V35H192.857C189.081 35 187.193 33.1653 187.193 29.496V20.952H185.081V17.272H187.193V12.888H191.705V17.272H195.673V20.952H191.705ZM201.168 15.16C200.378 15.16 199.717 14.9147 199.184 14.424C198.672 13.912 198.416 13.2827 198.416 12.536C198.416 11.7893 198.672 11.1707 199.184 10.68C199.717 10.168 200.378 9.912 201.168 9.912C201.957 9.912 202.608 10.168 203.12 10.68C203.653 11.1707 203.92 11.7893 203.92 12.536C203.92 13.2827 203.653 13.912 203.12 14.424C202.608 14.9147 201.957 15.16 201.168 15.16ZM203.376 17.272V35H198.896V17.272H203.376ZM215.674 35.288C213.967 35.288 212.431 34.9147 211.066 34.168C209.7 33.4 208.623 32.3227 207.834 30.936C207.066 29.5493 206.682 27.9493 206.682 26.136C206.682 24.3227 207.076 22.7227 207.866 21.336C208.676 19.9493 209.775 18.8827 211.162 18.136C212.548 17.368 214.095 16.984 215.802 16.984C217.508 16.984 219.055 17.368 220.442 18.136C221.828 18.8827 222.916 19.9493 223.706 21.336C224.516 22.7227 224.922 24.3227 224.922 26.136C224.922 27.9493 224.506 29.5493 223.674 30.936C222.863 32.3227 221.754 33.4 220.346 34.168C218.959 34.9147 217.402 35.288 215.674 35.288ZM215.674 31.384C216.484 31.384 217.242 31.192 217.946 30.808C218.671 30.4027 219.247 29.8053 219.674 29.016C220.1 28.2267 220.314 27.2667 220.314 26.136C220.314 24.4507 219.866 23.16 218.97 22.264C218.095 21.3467 217.018 20.888 215.738 20.888C214.458 20.888 213.38 21.3467 212.506 22.264C211.652 23.16 211.226 24.4507 211.226 26.136C211.226 27.8213 211.642 29.1227 212.474 30.04C213.327 30.936 214.394 31.384 215.674 31.384ZM238.032 17.016C240.144 17.016 241.851 17.688 243.152 19.032C244.453 20.3547 245.104 22.2107 245.104 24.6V35H240.624V25.208C240.624 23.8 240.272 22.7227 239.568 21.976C238.864 21.208 237.904 20.824 236.688 20.824C235.451 20.824 234.469 21.208 233.744 21.976C233.04 22.7227 232.688 23.8 232.688 25.208V35H228.208V17.272H232.688V19.48C233.285 18.712 234.043 18.1147 234.96 17.688C235.899 17.24 236.923 17.016 238.032 17.016Z" fill="#436850"/>
</svg>
