<svg width="146" height="42" viewBox="0 0 146 42" fill="none" xmlns="http://www.w3.org/2000/svg">
<path d="M15.532 25.808C15.532 25.064 15.232 24.368 14.632 23.72C14.056 23.072 13.336 22.484 12.472 21.956C11.608 21.404 10.408 20.72 8.872 19.904C7.072 18.944 5.62 18.116 4.516 17.42C3.412 16.7 2.464 15.872 1.672 14.936C0.904 13.976 0.52 12.92 0.52 11.768C0.52 10.568 1.036 9.284 2.068 7.916C3.124 6.524 4.408 5.36 5.92 4.424C7.432 3.464 8.824 2.984 10.096 2.984C11.632 2.984 13.42 3.164 15.46 3.524C17.524 3.884 19.024 4.268 19.96 4.676V12.02H17.8C16.696 10.076 15.472 8.564 14.128 7.484C12.808 6.404 11.416 5.864 9.952 5.864C8.728 5.864 7.768 6.248 7.072 7.016C6.376 7.76 6.028 8.732 6.028 9.932C6.028 10.724 6.328 11.468 6.928 12.164C7.528 12.836 8.272 13.448 9.16 14C10.072 14.552 11.296 15.224 12.832 16.016C14.584 16.928 16.012 17.732 17.116 18.428C18.22 19.124 19.144 19.94 19.888 20.876C20.656 21.812 21.04 22.844 21.04 23.972C21.04 25.172 20.476 26.468 19.348 27.86C18.244 29.228 16.888 30.392 15.28 31.352C13.672 32.288 12.208 32.756 10.888 32.756C9.28 32.756 7.36 32.576 5.128 32.216C2.92 31.856 1.324 31.472 0.34 31.064V23.72H2.536C3.688 25.664 5.008 27.176 6.496 28.256C7.984 29.336 9.508 29.876 11.068 29.876C12.412 29.876 13.492 29.48 14.308 28.688C15.124 27.872 15.532 26.912 15.532 25.808ZM35.771 30.2L34.871 32H24.287V30.524L27.491 27.932V6.764L24.287 4.568V3.092L30.803 0.571999H32.531V29.012L35.771 30.2ZM47.291 32H40.667L34.259 22.424L40.847 17.024L36.995 14.576L37.895 12.776H47.219V14.252L39.227 20.876L44.807 28.904L48.191 30.2L47.291 32ZM61.0442 32H50.4602V30.524L53.6642 27.932V18.284L50.4602 16.088V14.612L56.9762 12.092H58.7042V29.012L61.9442 30.2L61.0442 32ZM56.0762 1.256C56.9162 1.256 57.6122 1.556 58.1642 2.156C58.7162 2.732 58.9922 3.452 58.9922 4.316C58.9922 4.916 58.7882 5.492 58.3802 6.044C57.9962 6.572 57.5042 6.992 56.9042 7.304C56.3282 7.616 55.7642 7.772 55.2122 7.772C54.3722 7.772 53.6762 7.484 53.1242 6.908C52.5722 6.332 52.2962 5.612 52.2962 4.748C52.2962 4.124 52.4882 3.548 52.8722 3.02C53.2802 2.492 53.7722 2.072 54.3482 1.76C54.9482 1.424 55.5242 1.256 56.0762 1.256ZM87.5928 32H80.2128V20.12C80.2128 18.848 80.0208 17.972 79.6368 17.492C79.2528 16.988 78.5808 16.736 77.6208 16.736C76.9008 16.736 76.1808 16.856 75.4608 17.096C74.7408 17.336 73.9248 17.792 73.0128 18.464V29.012L76.2528 30.2L75.3528 32H64.7688V30.524L67.9728 27.932V18.572L64.7688 16.628V15.152L71.4648 12.092L72.7248 16.556L77.5848 12.704C78.0888 12.512 78.7848 12.416 79.6728 12.416C81.3768 12.416 82.7328 12.92 83.7408 13.928C84.7488 14.912 85.2528 16.256 85.2528 17.96V29.012L88.4928 30.2L87.5928 32ZM102.011 32.072C101.363 32.264 100.571 32.36 99.6353 32.36C97.4993 32.36 95.9393 31.844 94.9553 30.812C93.9953 29.756 93.5153 28.136 93.5153 25.952V15.692H89.6273V14.036L96.8273 5.9H98.5553V13.856H105.035V15.692H98.5553V26.096C98.5553 27.056 98.7833 27.752 99.2393 28.184C99.7193 28.616 100.427 28.832 101.363 28.832C101.867 28.832 102.347 28.748 102.803 28.58C103.283 28.388 103.871 28.04 104.567 27.536L105.647 29.192L102.011 32.072ZM118.525 32H107.941V30.524L111.145 27.932V18.284L107.941 16.088V14.612L114.457 12.092H116.185V29.012L119.425 30.2L118.525 32ZM113.557 1.256C114.397 1.256 115.093 1.556 115.645 2.156C116.197 2.732 116.473 3.452 116.473 4.316C116.473 4.916 116.269 5.492 115.861 6.044C115.477 6.572 114.985 6.992 114.385 7.304C113.809 7.616 113.245 7.772 112.693 7.772C111.853 7.772 111.157 7.484 110.605 6.908C110.053 6.332 109.777 5.612 109.777 4.748C109.777 4.124 109.969 3.548 110.353 3.02C110.761 2.492 111.253 2.072 111.829 1.76C112.429 1.424 113.005 1.256 113.557 1.256ZM144.641 41.108H131.969V39.632L137.153 37.04V29.372L133.805 32.036C133.037 32.228 132.113 32.324 131.033 32.324C129.449 32.324 128.021 31.916 126.749 31.1C125.501 30.26 124.517 29.132 123.797 27.716C123.101 26.3 122.753 24.74 122.753 23.036C122.753 21.164 123.317 19.412 124.445 17.78C125.573 16.124 126.977 14.816 128.657 13.856C130.361 12.872 132.005 12.38 133.589 12.38C135.533 12.38 137.213 13.052 138.629 14.396L140.501 12.164H142.229V38.228L145.541 39.308L144.641 41.108ZM133.013 28.544C133.733 28.544 134.417 28.46 135.065 28.292C135.713 28.1 136.409 27.764 137.153 27.284V19.616C137.009 18.512 136.481 17.612 135.569 16.916C134.681 16.196 133.445 15.836 131.861 15.836C130.637 15.836 129.713 16.304 129.089 17.24C128.465 18.176 128.153 19.532 128.153 21.308C128.153 23.348 128.573 25.064 129.413 26.456C130.277 27.848 131.489 28.544 133.049 28.544H133.013Z" fill="black"/>
</svg>
